<svg xmlns="http://www.w3.org/2000/svg" viewBox="0 0 147.65 239.26"><defs><style>.cls-1{fill:none;stroke:#000;stroke-miterlimit:10;opacity:0.6;}.cls-2{fill:#7e7e7f;}.cls-3{fill:#5f5f5f;}</style></defs><g id="レイヤー_2" data-name="レイヤー 2"><g id="レイヤー_1-2" data-name="レイヤー 1"><path d="M15.28,234.65c.2-.15.62-.53,1.27-1.12s1-.95,1.17-1.06l.84-.67.79-.64a3.83,3.83,0,0,1,1.89-.9c1.45-.23,2.24.37,2.36,1.79,0,.35.09,1.24.13,2.69a2.15,2.15,0,0,0,.91,1.89,2.86,2.86,0,0,0,2,.32,14.86,14.86,0,0,0,4.71-1.66,25.07,25.07,0,0,0,3.1-2.08c.3-.24.75-.63,1.35-1.19a17.55,17.55,0,0,1,1.4-1.21,1.34,1.34,0,0,1,.52-.23c.85-.08.89.47.12,1.67a9.24,9.24,0,0,1-.6.76,15.78,15.78,0,0,1-3,2.44c-.22.15-.43.28-.66.41l-.57.34-.68.35-.6.29-.69.3a6.63,6.63,0,0,1-.63.26l-.72.27-.67.27a8.41,8.41,0,0,1-3.39.71,3.47,3.47,0,0,1-2.3-.84,3.66,3.66,0,0,1-1.16-2.52,12.69,12.69,0,0,1-.09-2.56.61.61,0,0,0-.29-.66.81.81,0,0,0-.77,0,11.09,11.09,0,0,0-2.85,2c-.15.12-.48.42-1,.88l-1.14,1-.9.9a9.68,9.68,0,0,0-.92,1.12,4.61,4.61,0,0,1-.4.4.71.71,0,0,1-.72.18.89.89,0,0,1-.39-.42.63.63,0,0,1-.06-.54,1.78,1.78,0,0,1,.09-.23l.12-.21.11-.2a1.78,1.78,0,0,0,.09-.23c.39-.85.79-1.81,1.2-2.86s.75-1.94,1-2.64l1-3c.44-1.32.76-2.24,1-2.75q1.08-3.08,2-5.12c.4-.9.82-1.73,1.25-2.5a14.64,14.64,0,0,1,1.47-2.4,4,4,0,0,1,.85-.8,3,3,0,0,1,1-.45,1.55,1.55,0,0,1,1.12.19,2.34,2.34,0,0,1,1.2,1.67,3.82,3.82,0,0,1-.11,2.11A18.13,18.13,0,0,1,24,222a33.56,33.56,0,0,1-2.59,3.61c-.37.45-1,1.12-1.79,2a27.65,27.65,0,0,0-2.08,2.45,10.47,10.47,0,0,0-1.35,2.32c0,.1-.13.32-.27.64s-.28.65-.42,1S15.3,234.58,15.28,234.65ZM25,217.08a1.26,1.26,0,0,0-.64-1.38,1.32,1.32,0,0,0-.33-.08.58.58,0,0,0-.34.07,2,2,0,0,0-.29.17l-.27.27-.24.29-.24.31a1.62,1.62,0,0,0-.18.25,16.29,16.29,0,0,0-1.47,2.4c-.25.54-.5,1.09-.73,1.67s-.52,1.3-.84,2.19-.53,1.45-.64,1.71a9.56,9.56,0,0,0-.44,1.47c0,.15,0,.25.08.29a.33.33,0,0,0,.3,0,3,3,0,0,0,.5-.4,7.4,7.4,0,0,0,.54-.61l.4-.46a21.5,21.5,0,0,0,4.58-7.2A6.64,6.64,0,0,0,25,217.08Z"/><path d="M42.61,234.23l-.24.06a.8.8,0,0,0-.21.13l-.14.15a1.34,1.34,0,0,0-.16.19l-.14.17a2.71,2.71,0,0,1-.42.4l-.43.34-.51.34-.47.3a2.55,2.55,0,0,1-1.47.32,2.29,2.29,0,0,1-1.09-.3,1.71,1.71,0,0,1-.67-.74,2.26,2.26,0,0,1-.19-1.1,6.44,6.44,0,0,1,1.79-3.94,6.69,6.69,0,0,1,3.87-1.92c.13,0,.49,0,1.09-.08a3.48,3.48,0,0,0,1.34-.27.42.42,0,0,1,.42.14.5.5,0,0,1,.19.43,5,5,0,0,1-.25.93,8.23,8.23,0,0,0-.48,2.63,2.24,2.24,0,0,0,.35,1.44,2.52,2.52,0,0,0,1.28.86,4.37,4.37,0,0,0,2.27.13,8.52,8.52,0,0,0,3.52-1.44l1-.69c.52-.37.89-.63,1.12-.78s.53-.38.92-.69.75-.6,1.06-.87.6-.53.88-.81a1.73,1.73,0,0,1,.61-.45.52.52,0,0,1,.67.16.7.7,0,0,1,.13.42,2.15,2.15,0,0,1-.51,1.24q-.16.19-.36.39a2.8,2.8,0,0,1-.41.35l-.42.3c-.13.1-.28.2-.45.31a3.46,3.46,0,0,0-.41.29c-.69.53-1.94,1.42-3.78,2.65a9.35,9.35,0,0,1-4.73,1.38,4.69,4.69,0,0,1-3.62-1.44l-.21-.24a3.17,3.17,0,0,0-.21-.27,1.26,1.26,0,0,0-.22-.24A.88.88,0,0,0,42.61,234.23Zm.19-3.55a.55.55,0,0,0,0-.34.67.67,0,0,0-.2-.21.33.33,0,0,0-.24,0,4.93,4.93,0,0,0-2.72,1.35,4.66,4.66,0,0,0-1.37,2.65.7.7,0,0,0,.17.71.65.65,0,0,0,.72.09,2.25,2.25,0,0,0,.87-.38,10.83,10.83,0,0,0,2.72-3.43S42.74,230.93,42.8,230.68Z"/><path d="M56.88,235.67a1.13,1.13,0,0,0,.32,0,1.88,1.88,0,0,0,.34-.14l.32-.19.32-.21a2.11,2.11,0,0,1,.27-.15c2.41-1.34,4.39-2.43,5.92-3.26a14.27,14.27,0,0,1,2.14-.86,1.39,1.39,0,0,1,1.38.11,1.42,1.42,0,0,1,.45,1.29,8.6,8.6,0,0,1-.22,1.51,5.17,5.17,0,0,0-.1,1.73c.08,1,.61,1.37,1.57,1.12a36.29,36.29,0,0,0,7.45-3c.34-.17,1-.52,1.84-1s1.65-1,2.28-1.27a13.53,13.53,0,0,1,1.93-.8,1.78,1.78,0,0,1,.71-.13.6.6,0,0,1,.51.42.57.57,0,0,1-.19.58,2.4,2.4,0,0,1-.58.28l-1.44.58a15.32,15.32,0,0,0-1.67.75c-.55.29-1.18.63-1.88,1l-1.6.88-1.19.64-1.29.67-1.17.56c-.56.27-1,.46-1.34.59s-.76.27-1.24.42a13.47,13.47,0,0,1-1.39.35,1.9,1.9,0,0,1-2.43-1.19,4.85,4.85,0,0,1-.32-2.65c0-.11.06-.26.11-.47s.09-.35.11-.46c.09-.47.06-.76-.09-.88s-.47-.09-1,.08-1.06.42-1.76.74a37.56,37.56,0,0,0-3.49,1.92L58,236.63a5.63,5.63,0,0,1-1.92.83,1.36,1.36,0,0,1-1.6-1.79,3.6,3.6,0,0,1,.29-.7,40,40,0,0,0,2.3-6,1.93,1.93,0,0,1,.29-.64.58.58,0,0,1,.64-.19c.28.09.41.38.38.87a6.87,6.87,0,0,1-.22,1.39,11,11,0,0,1-.4,1.28c-.14.35-.33.8-.57,1.36s-.43,1-.53,1.25l-.12.25-.11.29a2.07,2.07,0,0,0-.06.26.64.64,0,0,0,0,.22.52.52,0,0,0,.07.16.26.26,0,0,0,.17.13A1.51,1.51,0,0,0,56.88,235.67Z"/><path d="M84.79,233s.06.05.12,0a.56.56,0,0,0,.32-.13c.17-.12.46-.35.87-.68s.72-.58,1-.76a20.93,20.93,0,0,1,2.11-1.15,11,11,0,0,1,2.69-1,5.92,5.92,0,0,1,2.14,0,1.64,1.64,0,0,1,1.06.48,1.16,1.16,0,0,1,.06,1.18A6.13,6.13,0,0,1,92,234.1a10.52,10.52,0,0,1-1.6.67c-.28.09-.56.16-.84.23a2.19,2.19,0,0,1-.38.13l-.42.12a1.08,1.08,0,0,0,.52,1.12,5.53,5.53,0,0,0,2.4,1.19,5.27,5.27,0,0,0,2.72-.23l.16,0a12.45,12.45,0,0,0,4.76-3.2q.36-.37,1.89-1.89c.09-.08.27-.28.55-.6a8.64,8.64,0,0,1,.76-.8,2.1,2.1,0,0,1,.68-.45.71.71,0,0,1,.89.16.76.76,0,0,1,.13.54.78.78,0,0,1-.18.51,2.4,2.4,0,0,1-.51.48,5.33,5.33,0,0,0-.43.36c-.11.1-.24.24-.4.41s-.3.32-.42.43a5.29,5.29,0,0,1-.41.4c-.16.15-.31.29-.43.42a32.93,32.93,0,0,1-3.2,2.88,11.51,11.51,0,0,1-4.84,2.21,5.72,5.72,0,0,1-4.22-.9,7.07,7.07,0,0,1-2.59-2.49,2.72,2.72,0,0,0-.48-.61.67.67,0,0,0-1,0l-.92.86c-.41.39-.71.67-.9.87a7.43,7.43,0,0,1-1.06.83.54.54,0,0,1-.7-.07.72.72,0,0,1-.32-.86c.06-.15.2-.44.42-.86A50.12,50.12,0,0,0,84,230.37c1-2.61,1.62-4.31,1.87-5.1a44.23,44.23,0,0,1,4.55-10.37,5.13,5.13,0,0,1,1.68-1.63,1.65,1.65,0,0,1,1.93,0,2.11,2.11,0,0,1,.93,2.37,8.47,8.47,0,0,1-.58,1.6,29.16,29.16,0,0,1-5.24,7.81A21.1,21.1,0,0,0,86,229.33a25.84,25.84,0,0,0-1.21,2.88,1.09,1.09,0,0,0-.1.64A.2.2,0,0,0,84.79,233Zm8-2.4a3.65,3.65,0,0,0-1.25.26,7.32,7.32,0,0,0-1.25.48A11.13,11.13,0,0,0,88,232.66l-.2.11-.19.13a.69.69,0,0,0-.13.15.66.66,0,0,0-.09.19c-.07.25.05.44.35.54a1.34,1.34,0,0,0,.93,0l2.14-.73a5.13,5.13,0,0,0,2.56-1.89c.07-.07.1-.12.1-.16a.21.21,0,0,0,0-.19.43.43,0,0,0-.36-.23A1.07,1.07,0,0,0,92.82,230.55Zm-4.56-6.78h.08a1.08,1.08,0,0,0,.38-.26,31.25,31.25,0,0,0,4.61-7,2.67,2.67,0,0,0,.26-1.5.76.76,0,0,0-.31-.45.5.5,0,0,0-.53,0,3,3,0,0,0-1.18.93,6.07,6.07,0,0,0-.8,1.2c-.17.35-.38.81-.64,1.39Q89,220.86,88.21,223a.84.84,0,0,0,0,.73C88.23,223.75,88.25,223.77,88.26,223.77Z"/><path d="M105,234.29a1.07,1.07,0,0,0,.77.77,7.76,7.76,0,0,0,5.63.07,25.4,25.4,0,0,0,4.07-2.21q.76-.51,1.92-1.38c.06,0,.19-.14.38-.3a4.83,4.83,0,0,1,.45-.35,2.39,2.39,0,0,1,.43-.23,2.24,2.24,0,0,1,.5-.14.56.56,0,0,1,.54.19c.13.19.07.45-.16.77a7.51,7.51,0,0,1-.62.72c-.25.24-.47.45-.66.61s-.49.36-.88.62l-.78.51c-.13.09-.43.27-.9.55l-.77.44a29.65,29.65,0,0,1-3.23,1.73,8.28,8.28,0,0,1-6,.23,4.92,4.92,0,0,1-3-2.5,3.23,3.23,0,0,1,.76-4,5.19,5.19,0,0,1,2.92-1.35,2.44,2.44,0,0,1,1.47.36,1.66,1.66,0,0,1,.72.88,1.29,1.29,0,0,1-.15,1.1,4.91,4.91,0,0,1-2,2.05l-.48.21a2.51,2.51,0,0,0-.57.3A2,2,0,0,0,105,234.29Zm-.89-1.34,2-1a2.41,2.41,0,0,0,.7-.61.56.56,0,0,0,.1-.54.45.45,0,0,0-.42-.26,2.42,2.42,0,0,0-2.36,1.28A.85.85,0,0,0,104.15,233Z"/><path d="M123,236.89a5.7,5.7,0,0,1-3.1-.77,3.82,3.82,0,0,1-1.92-4.07,5.09,5.09,0,0,1,.93-2.3,1.77,1.77,0,0,1,.6-.48.63.63,0,0,1,.71.06.72.72,0,0,1,.25.71,2.65,2.65,0,0,1-.44.83,2.86,2.86,0,0,0-.6,1.9,2.39,2.39,0,0,0,.71,1.43,3.21,3.21,0,0,0,1.49.8,5.81,5.81,0,0,0,3,0A63.92,63.92,0,0,0,138,229.59a8,8,0,0,1,1.92-.77,1.23,1.23,0,0,1,.8.07q1.18.51-1.76,2.2l-.25.16a8.48,8.48,0,0,1-1.24.66c-.45.2-1,.41-1.5.62s-1,.4-1.3.55c-.49.23-1,.46-1.55.67l-1.82.69c-.67.24-1.19.44-1.55.59a53.13,53.13,0,0,1-5.25,1.7A4.56,4.56,0,0,1,123,236.89Zm1.19-13.38a5.38,5.38,0,0,1-.26.58,2.76,2.76,0,0,1-1.73,1,1.11,1.11,0,0,1-1.18-.38,1,1,0,0,1-.19-.69,1.3,1.3,0,0,1,.19-.75,2,2,0,0,1,1.15-.77,2,2,0,0,1,1.38,0,1.06,1.06,0,0,1,.43.38A1,1,0,0,1,124.15,223.51Z"/><circle class="cls-1" cx="70.2" cy="65.29" r="64.79"/><path class="cls-2" d="M123.38,143.14,106.1,173.56c-4.08-2.33-6.66-6.45-7.62-11.34-4.22,8.2-4.41,17.19.37,23.76l48.8-35.53C142.56,143.44,133.12,141,123.38,143.14Z"/><path class="cls-2" d="M109.6,149.46a37.29,37.29,0,0,1,13.78-6.32L129.71,132c-8.82-5-21.26.23-27.78,11.71a27.39,27.39,0,0,0-3.45,18.52A36.71,36.71,0,0,1,109.6,149.46Z"/><path class="cls-3" d="M106.1,173.56l17.28-30.42a37.29,37.29,0,0,0-13.78,6.32,36.71,36.71,0,0,0-11.12,12.76C99.44,167.11,102,171.23,106.1,173.56Z"/><path class="cls-2" d="M59.59,181.89C48.4,193.08,27.53,190.35,13,175.8S-4.3,140.38,6.89,129.2"/><path d="M50.16,147.76c-2.24-2.25-2-5.85,3.2-11.1l49.87-49.87-2.36-2.36L46.63,138.68a8.93,8.93,0,0,0,0,12.62L102,206.71l3.54-3.53Z"/></g></g></svg>